<svg aria-hidden="true" style="position: absolute; width: 0; height: 0; overflow: hidden;" version="1.1" xmlns="http://www.w3.org/2000/svg" xmlns:xlink="http://www.w3.org/1999/xlink">
<defs>
<symbol id="email-black-1" viewBox="0 0 32 32">
<path d="M26.678 5.336h-21.342c-1.467 0-2.654 1.2-2.654 2.668l-0.014 16.007c0 1.467 1.2 2.668 2.668 2.668h21.342c1.467 0 2.668-1.201 2.668-2.668v-16.007c0-1.467-1.201-2.668-2.668-2.668zM26.144 11.006l-9.43 5.894c-0.201 0.126-0.446 0.2-0.708 0.2s-0.507-0.075-0.714-0.204l0.006 0.003-9.43-5.894c-0.336-0.201-0.557-0.562-0.557-0.976 0-0.626 0.507-1.133 1.133-1.133 0.233 0 0.449 0.070 0.629 0.19l-0.004-0.003 8.937 5.588 8.937-5.59c0.176-0.118 0.392-0.188 0.625-0.188 0.626 0 1.133 0.507 1.133 1.133 0 0.413-0.221 0.775-0.552 0.973l-0.005 0.003z"></path>
</symbol>
<symbol id="icon-send-1" viewBox="0 0 32 32">
<path fill="#fff" style="fill: var(--color1, #fff)" d="M32.013 0l-32.013 18.008 10.231 3.788 15.78-14.793-12.002 16.193 0.009 0.003-0.012-0.003v8.817l5.737-6.693 7.27 2.692 5.001-28.012z"></path>
</symbol>
<symbol id="person-black-1" viewBox="0 0 32 32">
<path d="M16.007 16.007c2.947 0 5.336-2.389 5.336-5.336s-2.389-5.336-5.336-5.336v0c-2.947 0-5.336 2.389-5.336 5.336s2.389 5.336 5.336 5.336v0zM16.007 18.675c-3.562 0-10.671 1.787-10.671 5.336v1.334c0 0.733 0.599 1.334 1.334 1.334h18.675c0.733 0 1.334-0.601 1.334-1.334v-1.334c0-3.548-7.111-5.336-10.671-5.336z"></path>
</symbol>
<symbol id="phone-black-1" viewBox="0 0 32 32">
<path d="M24.892 19.783l-3.269-0.373c-0.090-0.011-0.194-0.018-0.3-0.018-0.707 0-1.348 0.287-1.811 0.75l-2.369 2.369c-3.671-1.895-6.588-4.812-8.431-8.376l-0.051-0.108 2.383-2.378c0.464-0.463 0.75-1.104 0.75-1.811 0-0.106-0.006-0.21-0.019-0.312l0.001 0.012-0.373-3.244c-0.155-1.288-1.241-2.277-2.558-2.277-0.001 0-0.002 0-0.003 0h-2.227c-1.455 0-2.664 1.209-2.575 2.662 0.683 10.991 9.474 19.77 20.453 20.453 1.453 0.089 2.664-1.12 2.664-2.575v-2.227c0-0.004 0-0.008 0-0.012 0-1.308-0.985-2.387-2.254-2.533l-0.012-0.001z"></path>
</symbol>
</defs>
</svg>
